<svg width="512" height="512" viewBox="0 0 512 512" fill="none" xmlns="http://www.w3.org/2000/svg" xmlns:xlink="http://www.w3.org/1999/xlink" class=""><rect id="r9" width="512" height="512" x="0" y="0" rx="128" fill="url(#ra)" stroke="#363535" stroke-width="0" stroke-opacity="100%" paint-order="stroke"></rect><clipPath id="clip"><use xlink:href="#r9"></use></clipPath><defs><linearGradient id="ra" gradientUnits="userSpaceOnUse" gradientTransform="rotate(45)" style="transform-origin: center center;"><stop stop-color="#1C1C1C"></stop><stop offset="1" stop-color="#1C1C1C"></stop></linearGradient><radialGradient id="rb" cx="0" cy="0" r="1" gradientUnits="userSpaceOnUse" gradientTransform="translate(256) rotate(90) scale(512)"><stop stop-color="white"></stop><stop offset="1" stop-color="white" stop-opacity="0"></stop></radialGradient></defs><svg xmlns="http://www.w3.org/2000/svg" fill="none" viewBox="0 0 16 16" width="350" height="350" x="81" y="81" alignment-baseline="middle" style="color: rgb(255, 255, 255);"><path stroke="currentColor" stroke-linecap="round" stroke-linejoin="round" stroke-width="1.5" d="M5.75 3.75h-1a1 1 0 0 0-1 1v1m2-2v-2m0 2h4.5m0 0h1a1 1 0 0 1 1 1v1m-2-2v-2m-4.5 12.5v-2m4.5 2v-2m2-6.5h2m-2 0v4.5m0 0v1a1 1 0 0 1-1 1h-6.5a1 1 0 0 1-1-1v-1m8.5 0h2m-10.5 0h-2m2 0v-4.5m0 0h-2"></path></svg></svg>